<svg xmlns="http://www.w3.org/2000/svg" width="30.455" height="28" viewBox="0 0 30.455 28"><defs><style>.a{fill:#707070;stroke:#d5d5d5;}</style></defs><g transform="translate(0.5 0.5)"><path class="a" d="M19.636,28.507c-.245,0-.368,0-.491-.123L9.818,23.72,1.841,28.261a1.115,1.115,0,0,1-1.227,0A.972.972,0,0,1,0,27.28V7.643a1.289,1.289,0,0,1,.614-1.1L9.2,1.63a1.7,1.7,0,0,1,1.1,0l9.327,4.664,7.977-4.541a1.115,1.115,0,0,1,1.227,0,.972.972,0,0,1,.614.982V22.37a1.289,1.289,0,0,1-.614,1.1L20.25,28.384A1.106,1.106,0,0,1,19.636,28.507ZM9.818,21.143c.245,0,.368,0,.491.123l9.2,4.664,7.364-4.173V4.82l-6.75,3.8a.92.92,0,0,1-1.1,0l-9.2-4.541L2.455,8.38V25.193l6.75-3.8A.676.676,0,0,1,9.818,21.143Z" transform="translate(0 -1.507)"/><path class="a" d="M11.727,23.591A1.159,1.159,0,0,1,10.5,22.364V2.727A1.159,1.159,0,0,1,11.727,1.5a1.159,1.159,0,0,1,1.227,1.227V22.364A1.159,1.159,0,0,1,11.727,23.591ZM21.545,28.5a1.159,1.159,0,0,1-1.227-1.227V7.636a1.227,1.227,0,0,1,2.455,0V27.273A1.159,1.159,0,0,1,21.545,28.5Z" transform="translate(-1.909 -1.5)"/></g></svg>