<svg xmlns="http://www.w3.org/2000/svg" width="28" height="31" viewBox="0 0 28 31"><defs><style>.a{fill:#707070;stroke:#d5d5d5;}</style></defs><path class="a" d="M30,33a1.417,1.417,0,0,1-1.5-1.5v-3A4.42,4.42,0,0,0,24,24H12a4.42,4.42,0,0,0-4.5,4.5v3A1.417,1.417,0,0,1,6,33a1.417,1.417,0,0,1-1.5-1.5v-3A7.427,7.427,0,0,1,12,21H24a7.427,7.427,0,0,1,7.5,7.5v3A1.417,1.417,0,0,1,30,33ZM18,18a7.427,7.427,0,0,1-7.5-7.5,7.5,7.5,0,0,1,15,0A7.427,7.427,0,0,1,18,18ZM18,6a4.42,4.42,0,0,0-4.5,4.5,4.5,4.5,0,0,0,9,0A4.42,4.42,0,0,0,18,6Z" transform="translate(-4 -2.5)"/></svg>