<svg xmlns="http://www.w3.org/2000/svg" width="31" height="34.103" viewBox="0 0 31 34.103"><defs><style>.a{fill:#707070;stroke:#d5d5d5;}</style></defs><g transform="translate(0.5 0.566)"><path class="a" d="M28.5,34.5H7.5A4.42,4.42,0,0,1,3,30V13.5a1.364,1.364,0,0,1,.6-1.2L17.1,1.8a1.365,1.365,0,0,1,1.8,0L32.4,12.3a1.364,1.364,0,0,1,.6,1.2V30A4.42,4.42,0,0,1,28.5,34.5ZM6,14.25V30a1.417,1.417,0,0,0,1.5,1.5h21A1.417,1.417,0,0,0,30,30V14.25L18,4.95Z" transform="translate(-3 -1.463)"/><path class="a" d="M22.5,34.5A1.417,1.417,0,0,1,21,33V19.5H15V33a1.417,1.417,0,0,1-1.5,1.5A1.417,1.417,0,0,1,12,33V18a1.417,1.417,0,0,1,1.5-1.5h9A1.417,1.417,0,0,1,24,18V33A1.417,1.417,0,0,1,22.5,34.5Z" transform="translate(-3 -1.463)"/></g></svg>