<svg xmlns="http://www.w3.org/2000/svg" width="40" height="40" viewBox="0 0 40 40"><defs><style>.a{fill:#fff;stroke:#707070;stroke-width:2px;}.b{fill:#707070;}.c{stroke:none;}.d{fill:none;}</style></defs><g transform="translate(0)"><g class="a" transform="translate(0)"><circle class="c" cx="20" cy="20" r="20"/><circle class="d" cx="20" cy="20" r="19"/></g><path class="b" d="M23.4,25.237a1.05,1.05,0,0,1-1.112-1.112V21.9a3.276,3.276,0,0,0-3.336-3.336H10.059A3.276,3.276,0,0,0,6.724,21.9v2.224a1.05,1.05,0,0,1-1.112,1.112A1.05,1.05,0,0,1,4.5,24.125V21.9a5.505,5.505,0,0,1,5.559-5.559h8.895A5.505,5.505,0,0,1,24.513,21.9v2.224A1.05,1.05,0,0,1,23.4,25.237ZM14.507,14.119A5.505,5.505,0,0,1,8.947,8.559a5.559,5.559,0,0,1,11.119,0A5.505,5.505,0,0,1,14.507,14.119Zm0-8.895a3.276,3.276,0,0,0-3.336,3.336,3.336,3.336,0,1,0,6.671,0A3.276,3.276,0,0,0,14.507,5.224Z" transform="translate(5.109 4.385)"/></g></svg>