<svg xmlns="http://www.w3.org/2000/svg" width="30.003" height="23.331" viewBox="0 0 30.003 23.331"><path d="M14.6,8.056,5,15.965V24.5a.833.833,0,0,0,.833.833l5.837-.015a.833.833,0,0,0,.829-.833V19.5a.833.833,0,0,1,.833-.833h3.333a.833.833,0,0,1,.833.833v4.982a.833.833,0,0,0,.833.836l5.834.016A.833.833,0,0,0,25,24.5V15.959l-9.6-7.9a.635.635,0,0,0-.8,0Zm15.169,5.376L25.417,9.842V2.628A.625.625,0,0,0,24.792,2H21.875a.625.625,0,0,0-.625.625V6.41L16.587,2.574a2.5,2.5,0,0,0-3.178,0L.226,13.432a.625.625,0,0,0-.083.88l1.328,1.615a.625.625,0,0,0,.881.085L14.6,5.921a.635.635,0,0,1,.8,0L27.651,16.012a.625.625,0,0,0,.88-.083l1.328-1.615a.625.625,0,0,0-.088-.882Z" transform="translate(0.001 -2.003)"/></svg>