<svg xmlns="http://www.w3.org/2000/svg" width="19.745" height="28.727" viewBox="0 0 19.745 28.727"><path d="M11.7,0A10.87,10.87,0,0,0,2.042,5.107a1.347,1.347,0,0,0,.29,1.844l2.42,1.835a1.346,1.346,0,0,0,1.866-.233c1.405-1.76,2.448-2.774,4.643-2.774,1.726,0,3.861,1.111,3.861,2.785,0,1.266-1.045,1.915-2.749,2.87-1.988,1.114-4.618,2.5-4.618,5.97v.55A1.347,1.347,0,0,0,9.1,19.3h4.066a1.347,1.347,0,0,0,1.347-1.347V17.63c0-2.4,7.028-2.5,7.028-9.012C21.543,3.718,16.46,0,11.7,0Zm-.563,20.953a3.887,3.887,0,1,0,3.887,3.887,3.891,3.891,0,0,0-3.887-3.887Z" transform="translate(-1.799)"/></svg>