<svg xmlns="http://www.w3.org/2000/svg" width="17.907" height="19.697" viewBox="0 0 17.907 19.697"><g transform="translate(-3 -1.5)"><path d="M17.325,8.663a3.581,3.581,0,1,1,3.581-3.581A3.592,3.592,0,0,1,17.325,8.663Zm0-5.372a1.791,1.791,0,1,0,1.791,1.791A1.8,1.8,0,0,0,17.325,3.291ZM6.581,14.93a3.581,3.581,0,1,1,3.581-3.581A3.592,3.592,0,0,1,6.581,14.93Zm0-5.372a1.791,1.791,0,1,0,1.791,1.791A1.8,1.8,0,0,0,6.581,9.558ZM17.325,21.2a3.581,3.581,0,1,1,3.581-3.581A3.592,3.592,0,0,1,17.325,21.2Zm0-5.372a1.791,1.791,0,1,0,1.791,1.791A1.8,1.8,0,0,0,17.325,15.825Z"/><path d="M18.359,19.891a.807.807,0,0,1-.448-.09l-6.088-3.581a.922.922,0,0,1,.9-1.612l6.088,3.581a.991.991,0,0,1,.358,1.253A.94.94,0,0,1,18.359,19.891Zm-6.088-6.267a1.068,1.068,0,0,1-.806-.448.906.906,0,0,1,.358-1.253l6.088-3.581a.991.991,0,0,1,1.253.358.906.906,0,0,1-.358,1.253l-6.088,3.581C12.539,13.535,12.45,13.624,12.271,13.624Z" transform="translate(-3.361 -2.723)"/></g></svg>