<svg xmlns="http://www.w3.org/2000/svg" width="14.569" height="23.733" viewBox="0 0 14.569 23.733"><defs><style>.a{fill:none;stroke-linejoin:round;}.b,.c{stroke:black;}</style></defs><g class="a" transform="translate(0.391 2)"><path class="b" d="M11.485,11.1l.548-3.571H8.607V5.211a1.786,1.786,0,0,1,2.013-1.929h1.558V.241A19.014,19.014,0,0,0,9.413,0C6.591,0,4.747,1.71,4.747,4.807V7.528H1.609V11.1H4.746v8.633H8.607V11.1Z"/><path class="c" d="M 8.606619834899902 19.73323440551758 L 8.606619834899902 11.09994506835938 L 11.48548030853271 11.09994506835938 L 12.03363037109375 7.528775215148926 L 8.607170104980469 7.528775215148926 L 8.607170104980469 5.211215496063232 C 8.607170104980469 4.234425067901611 9.085700035095215 3.281745195388794 10.62051010131836 3.281745195388794 L 12.17833995819092 3.281745195388794 L 12.17833995819092 0.2411852926015854 C 12.17833995819092 0.2411852926015854 10.76412010192871 5.295410119288135e-06 9.41295051574707 5.295410119288135e-06 C 6.591090202331543 5.295410119288135e-06 4.746580123901367 1.710215330123901 4.746580123901367 4.806685447692871 L 4.746580123901367 7.528225421905518 L 1.609000086784363 7.528225421905518 L 1.609000086784363 11.09994506835938 L 4.746039867401123 11.09994506835938 L 4.746039867401123 19.73323440551758 L 8.606619834899902 19.73323440551758 M 8.606619834899902 21.73323440551758 L 4.746039867401123 21.73323440551758 C 3.641470193862915 21.73323440551758 2.746040105819702 20.83780479431152 2.746040105819702 19.73323440551758 L 2.746040105819702 13.09994506835938 L 1.609000086784363 13.09994506835938 C 0.5044300556182861 13.09994506835938 -0.3909999132156372 12.20451545715332 -0.3909999132156372 11.09994506835938 L -0.3909999132156372 7.528225421905518 C -0.3909999132156372 6.42365550994873 0.5044300556182861 5.528225421905518 1.609000086784363 5.528225421905518 L 2.746580123901367 5.528225421905518 L 2.746580123901367 4.806685447692871 C 2.746580123901367 2.768025398254395 3.389800071716309 1.046635270118713 4.60669994354248 -0.1713947057723999 C 5.8018798828125 -1.367674708366394 7.463850021362305 -1.99999475479126 9.41295051574707 -1.99999475479126 C 10.91615009307861 -1.99999475479126 12.44999980926514 -1.741364717483521 12.51455974578857 -1.7303546667099 C 13.47552013397217 -1.56646466255188 14.17833995819092 -0.7336447238922119 14.17833995819092 0.2411852926015854 L 14.17833995819092 3.281745195388794 C 14.17833995819092 4.38631534576416 13.28291034698486 5.281745433807373 12.17833995819092 5.281745433807373 L 10.62051010131836 5.281745433807373 C 10.61598300933838 5.281745433807373 10.61154270172119 5.281763553619385 10.60717010498047 5.281798362731934 L 10.60717010498047 5.528775215148926 L 12.03363037109375 5.528775215148926 C 12.61705017089844 5.528775215148926 13.17138004302979 5.783525466918945 13.55134010314941 6.226255416870117 C 13.93128967285156 6.668975353240967 14.09899044036865 7.255545139312744 14.01047992706299 7.832205295562744 L 13.46232986450195 11.40337562561035 C 13.31252002716064 12.37935543060303 12.47288036346436 13.09994506835938 11.48548030853271 13.09994506835938 L 10.6066198348999 13.09994506835938 L 10.6066198348999 19.73323440551758 C 10.6066198348999 20.83780479431152 9.711190223693848 21.73323440551758 8.606619834899902 21.73323440551758 Z"/></g></svg>