<svg xmlns="http://www.w3.org/2000/svg" width="21.009" height="21.004" viewBox="0 0 21.009 21.004"><path d="M10.5,7.354a5.385,5.385,0,1,0,5.385,5.385A5.377,5.377,0,0,0,10.5,7.354Zm0,8.886a3.5,3.5,0,1,1,3.5-3.5,3.507,3.507,0,0,1-3.5,3.5Zm6.862-9.107a1.256,1.256,0,1,1-1.256-1.256A1.253,1.253,0,0,1,17.364,7.134Zm3.567,1.274a6.217,6.217,0,0,0-1.7-4.4,6.255,6.255,0,0,0-4.4-1.7c-1.734-.1-6.932-.1-8.666,0A6.249,6.249,0,0,0,1.766,4,6.235,6.235,0,0,0,.07,8.4c-.1,1.734-.1,6.932,0,8.666a6.217,6.217,0,0,0,1.7,4.4,6.263,6.263,0,0,0,4.4,1.7c1.734.1,6.932.1,8.666,0a6.217,6.217,0,0,0,4.4-1.7,6.255,6.255,0,0,0,1.7-4.4c.1-1.734.1-6.927,0-8.662ZM18.69,18.931a3.543,3.543,0,0,1-2,2c-1.382.549-4.663.422-6.191.422s-4.813.122-6.191-.422a3.543,3.543,0,0,1-2-2c-.549-1.382-.422-4.663-.422-6.191s-.122-4.813.422-6.191a3.543,3.543,0,0,1,2-2C5.694,4,8.975,4.13,10.5,4.13s4.813-.122,6.191.422a3.543,3.543,0,0,1,2,2c.549,1.382.422,4.663.422,6.191s.127,4.813-.422,6.191Z" transform="translate(0.004 -2.237)"/></svg>