<svg xmlns="http://www.w3.org/2000/svg" width="20.192" height="16.52" viewBox="0 0 20.192 16.52"><g transform="translate(-1.5 -4.5)"><path d="M18.938,21.02H4.253A2.7,2.7,0,0,1,1.5,18.267V7.253A2.7,2.7,0,0,1,4.253,4.5H18.938a2.7,2.7,0,0,1,2.753,2.753V18.267A2.7,2.7,0,0,1,18.938,21.02ZM4.253,6.336a.867.867,0,0,0-.918.918V18.267a.867.867,0,0,0,.918.918H18.938a.867.867,0,0,0,.918-.918V7.253a.867.867,0,0,0-.918-.918Z"/><path d="M11.611,15.775a1.3,1.3,0,0,1-.551-.184L1.882,9.167A.971.971,0,0,1,1.7,7.882.971.971,0,0,1,2.983,7.7l8.627,6.057L20.238,7.7a.918.918,0,1,1,1.1,1.468l-9.178,6.425A1.3,1.3,0,0,1,11.611,15.775Z" transform="translate(-0.015 -1.179)"/></g></svg>